<svg width="36" height="36" viewBox="0 0 36 36" fill="none" xmlns="http://www.w3.org/2000/svg">
<path d="M14.249 25.875C14.249 26.8695 14.6441 27.8232 15.3473 28.5264C16.0505 29.2296 17.0042 29.6246 17.9986 29.6246C18.9931 29.6246 19.9468 29.2296 20.65 28.5264C21.3532 27.8232 21.7483 26.8695 21.7483 25.875" stroke="#E1E1E1" stroke-width="1.6"/>
<path fill-rule="evenodd" clip-rule="evenodd" d="M29.2477 25.5803H6.75L6.76463 25.5465C6.85013 25.3946 7.2945 24.7545 8.09887 23.6239L8.94262 22.4426V14.9783C8.94262 9.93262 12.8104 5.82075 17.6512 5.63175L18 5.625C23.0018 5.625 27.0562 9.81225 27.0562 14.9783V22.4415L28.9766 25.1539C29.1712 25.4385 29.2624 25.5814 29.2489 25.5814L29.2477 25.5803Z" stroke="#E1E1E1" stroke-width="1.6" stroke-linecap="round" stroke-linejoin="round"/>
</svg>
