<svg width="45" height="45" viewBox="0 0 45 45" fill="none" xmlns="http://www.w3.org/2000/svg">
<g clip-path="url(#clip0_13_456)">
<path opacity="0.5" d="M22.5 45C34.9264 45 45 34.9264 45 22.5C45 10.0736 34.9264 0 22.5 0C10.0736 0 0 10.0736 0 22.5C0 34.9264 10.0736 45 22.5 45Z" fill="#2A0038"/>
<path fill-rule="evenodd" clip-rule="evenodd" d="M31.49 17.29L29.32 26.52H16.9L14.74 17.29H31.49Z" stroke="white" stroke-width="1.4" stroke-linecap="square" stroke-linejoin="round"/>
<path d="M27.3801 32.94C28.3189 32.94 29.0801 32.1789 29.0801 31.24C29.0801 30.3011 28.3189 29.54 27.3801 29.54C26.4412 29.54 25.6801 30.3011 25.6801 31.24C25.6801 32.1789 26.4412 32.94 27.3801 32.94Z" stroke="white" stroke-width="1.2" stroke-linecap="square" stroke-linejoin="round"/>
<path d="M18.85 32.94C19.7889 32.94 20.55 32.1789 20.55 31.24C20.55 30.3011 19.7889 29.54 18.85 29.54C17.9111 29.54 17.15 30.3011 17.15 31.24C17.15 32.1789 17.9111 32.94 18.85 32.94Z" stroke="white" stroke-width="1.2" stroke-linecap="square" stroke-linejoin="round"/>
<path d="M11.03 14.38H14.05L15.46 20.36" stroke="white" stroke-width="1.4" stroke-linecap="square" stroke-linejoin="round"/>
</g>
<defs>
<clipPath id="clip0_13_456">
<rect width="45" height="45" fill="white"/>
</clipPath>
</defs>
</svg>
