<svg width="19" height="19" viewBox="0 0 19 19" fill="none" xmlns="http://www.w3.org/2000/svg">
<path d="M18.081 18.081L13.961 13.961M8.467 15.334C9.36879 15.334 10.2617 15.1564 11.0949 14.8113C11.928 14.4662 12.685 13.9603 13.3227 13.3227C13.9604 12.685 14.4662 11.928 14.8113 11.0949C15.1564 10.2617 15.334 9.36876 15.334 8.46697C15.334 7.56519 15.1564 6.67223 14.8113 5.83909C14.4662 5.00595 13.9604 4.24893 13.3227 3.61127C12.685 2.97361 11.928 2.46779 11.0949 2.12269C10.2617 1.77759 9.36879 1.59998 8.467 1.59998C6.64576 1.59998 4.89912 2.32346 3.6113 3.61127C2.32349 4.89909 1.60001 6.64573 1.60001 8.46697C1.60001 10.2882 2.32349 12.0349 3.6113 13.3227C4.89912 14.6105 6.64576 15.334 8.467 15.334V15.334Z" stroke="#5F0080" stroke-width="1.7" stroke-linecap="round"/>
</svg>
