<svg width="102" height="32" viewBox="0 0 102 32" fill="none" xmlns="http://www.w3.org/2000/svg">
<g opacity="0.5" clip-path="url(#clip0_85_1214)">
<path d="M20.7384 19.7604V24.7033H18.3374V11.4528H20.7213V12.7673C21.3518 11.8383 22.4213 11.2601 23.7005 11.2601C26.0844 11.2601 28.2568 13.1704 28.2568 16.1871C28.2568 19.2038 26.0486 21.1124 23.7176 21.1124C22.4389 21.1101 21.3695 20.6371 20.7384 19.7604ZM25.8388 16.1678C25.8388 14.6776 24.6824 13.5036 23.2275 13.5036C21.7379 13.5036 20.5985 14.6975 20.5985 16.1678C20.5985 17.638 21.7356 18.8314 23.2275 18.8314C24.6824 18.8314 25.8388 17.6574 25.8388 16.1678V16.1678Z" fill="black"/>
<path d="M50.2026 11.4528H52.619V12.5746C53.1972 11.7524 54.1085 11.2601 55.2479 11.2601C56.6693 11.2601 57.6318 11.8383 58.1401 12.8548C58.7359 11.8735 59.8048 11.2629 61.1017 11.2629C63.5032 11.2629 64.7125 12.7349 64.7125 15.1012V20.9174H62.2234V15.448C62.2234 14.1682 61.6975 13.3796 60.4711 13.3796C59.3841 13.3796 58.6654 14.1187 58.6654 15.6055V20.9174H56.1945V15.3786C56.1945 14.117 55.6686 13.3808 54.494 13.3808C53.3569 13.3808 52.6366 14.1346 52.6366 15.6595V20.9174H50.2026V11.4528Z" fill="black"/>
<path d="M70.8465 11.276C68.8276 11.276 67.1589 12.3977 66.3726 14.0437C66.05 14.7231 65.8839 15.4662 65.8865 16.2184C65.8865 18.9701 67.8491 21.1261 70.8988 21.1261C72.8944 21.1261 74.1964 20.3386 75.1373 19.1043L73.1593 17.9621C72.6823 18.6262 71.9654 19.0423 70.9341 19.0423C69.532 19.0423 68.5325 18.2708 68.2175 17.0439H75.6735C75.7144 16.7712 75.7351 16.4958 75.7354 16.2201V16.1302C75.7366 13.3267 73.6835 11.276 70.8465 11.276ZM68.288 15.1495C68.6735 14.0454 69.6201 13.3267 70.8465 13.3267C72.1081 13.3267 73.0195 13.9754 73.335 15.1495H68.288Z" fill="black"/>
<path d="M76.9436 11.4528H79.3622V12.6468C79.9757 11.7883 80.9541 11.2623 82.1316 11.2623C84.3751 11.2623 85.7947 12.7343 85.7947 15.2058V20.9174H83.3233V15.5731C83.3233 14.2239 82.6745 13.3825 81.3953 13.3825C80.2582 13.3825 79.3798 14.2239 79.3798 15.6959V20.9174H76.9436V11.4528Z" fill="black"/>
<path d="M86.4377 11.4528H88.19V9.40206L90.5739 8.00003V11.4528H93.0624V13.5911H90.5739V17.4822C90.5739 18.4812 90.9946 18.8314 91.6081 18.8314C91.9407 18.8314 92.2039 18.7262 92.4842 18.4812L93.5883 20.3739C92.9749 20.8287 92.2039 21.0925 91.3272 21.0925C89.347 21.0925 88.19 20.1459 88.19 17.5675V13.5877H86.4377V11.4528Z" fill="black"/>
<path d="M36.5508 12.6621C35.9026 11.786 34.8684 11.2601 33.6239 11.2601C31.2053 11.2601 29.0317 13.1704 29.0317 16.1848C29.0317 19.1993 31.2576 21.1101 33.5892 21.1101C34.8161 21.1101 35.885 20.549 36.5508 19.6205V20.9174H38.9347V11.4557H36.5508V12.6621ZM34.0622 18.8314C32.6073 18.8314 31.4333 17.6574 31.4333 16.1678C31.4333 14.6782 32.6073 13.5036 34.0622 13.5036C35.5518 13.5036 36.6912 14.6975 36.6912 16.1678C36.6912 17.638 35.5518 18.8314 34.0622 18.8314Z" fill="black"/>
<path d="M47.0029 11.4528L44.6719 17.5522L42.218 11.4528H39.6414L43.4449 20.5143L43.4944 20.6326L41.9599 24.6476L41.9519 24.6681H44.4757L49.5267 11.4528H47.0029Z" fill="black"/>
<path d="M95.8461 17.8558C96.2691 18.6955 97.0242 19.1316 98.0231 19.1293C99.005 19.1265 99.5297 18.6523 99.5286 18.0912C99.5286 17.4089 98.5092 17.2525 97.2988 17.0109C95.7029 16.6823 93.9307 16.1962 93.925 14.1978C93.921 12.6058 95.4601 11.214 97.7911 11.2254C99.644 11.2203 100.804 11.865 101.666 12.9629L99.6577 14.1301C99.2699 13.5001 98.6729 13.1334 97.7962 13.1357C96.8496 13.1385 96.3948 13.5252 96.3965 14.0511C96.3965 14.6469 97.1697 14.8027 98.557 15.0972C100.135 15.4082 101.996 15.9466 102.001 17.9797C102.005 19.4523 100.693 21.1209 97.9418 21.1107C95.8666 21.1164 94.4947 20.4006 93.7004 19.1032L93.697 19.0975L95.8461 17.8558Z" fill="black"/>
<path d="M14.5548 15.6026C14.3751 14.0644 13.641 12.6443 12.4898 11.6083C11.3387 10.5722 9.8494 9.99122 8.30077 9.97402H8.23027C7.98329 9.97413 7.73652 9.98836 7.49116 10.0167C6.62324 10.1166 5.78532 10.3947 5.02993 10.8337V10.8337C5.01344 10.8433 4.99809 10.853 4.9816 10.8621L4.93953 10.8871C1.29856 13.0555 0 18.0633 0 21.1101L2.93199 19.4176C3.96561 21.3864 5.94813 22.6839 8.15864 22.7077H8.22914C8.47613 22.7074 8.7229 22.693 8.96825 22.6645C10.6455 22.4687 12.1762 21.6148 13.2239 20.2904C14.2715 18.9661 14.7503 17.2799 14.5548 15.6026Z" fill="black"/>
</g>
<defs>
<clipPath id="clip0_85_1214">
<rect width="102" height="32" fill="white"/>
</clipPath>
</defs>
</svg>
