<svg width="34" height="34" viewBox="0 0 34 34" fill="none" xmlns="http://www.w3.org/2000/svg">
<mask id="mask0_111_2" style="mask-type:alpha" maskUnits="userSpaceOnUse" x="0" y="0" width="34" height="34">
<path fill-rule="evenodd" clip-rule="evenodd" d="M16.9905 0.0190659C7.60694 0.0190659 0 7.62601 0 17.0097C0 26.3931 7.60694 34 16.9905 34C26.374 34 33.9808 26.3931 33.9808 17.0097C33.9808 7.62601 26.374 0.0190659 16.9905 0.0190659Z" fill="white"/>
</mask>
<g mask="url(#mask0_111_2)">
<path fill-rule="evenodd" clip-rule="evenodd" d="M16.9905 0.0190659C7.60694 0.0190659 0 7.62601 0 17.0097C0 26.3931 7.60694 34 16.9905 34C26.374 34 33.9808 26.3931 33.9808 17.0097C33.9808 7.62601 26.374 0.0190659 16.9905 0.0190659Z" fill="url(#paint0_radial_111_2)"/>
</g>
<path fill-rule="evenodd" clip-rule="evenodd" d="M14.2162 25.8263C14.0341 25.9469 13.8273 25.9611 13.5939 25.9598C13.638 25.7547 13.6743 25.575 13.7176 25.3972C13.7257 25.3641 13.7334 25.3131 13.7864 25.3131C13.9477 25.3131 14.0905 25.3151 14.2384 25.3691C14.3913 25.4248 14.3829 25.7159 14.2162 25.8263ZM13.8981 26.8894C13.9378 27.0479 13.958 27.2114 13.9819 27.3733C13.9965 27.4729 14.0479 27.5142 14.1476 27.5112C14.2807 27.5073 14.414 27.5114 14.5471 27.5101C14.7283 27.5084 14.755 27.478 14.7105 27.2963C14.6317 26.9752 14.5843 26.5815 14.4045 26.3338C14.4383 26.3166 14.557 26.2723 14.6193 26.2389C14.9499 26.0618 15.1134 25.7437 15.06 25.3837C15.0139 25.074 14.8125 24.8624 14.4254 24.8143C14.0413 24.7666 13.65 24.7726 13.2617 24.7684C13.2383 24.768 13.1898 24.7668 13.1625 24.7895C13.1325 24.8141 13.1244 24.8638 13.1185 24.8904C12.9364 25.7099 12.7634 26.5313 12.5885 27.3522C12.5662 27.4567 12.6088 27.5096 12.7154 27.51C12.8384 27.5104 12.9617 27.5046 13.0842 27.512C13.2075 27.5196 13.2704 27.478 13.2934 27.3489C13.3374 27.1021 13.3932 26.8573 13.4537 26.614C13.4669 26.5615 13.4793 26.4704 13.513 26.4717C13.513 26.4717 13.6617 26.4585 13.7 26.4636C13.7386 26.4687 13.8347 26.6361 13.8981 26.8894Z" fill="#C3C3C3"/>
<path fill-rule="evenodd" clip-rule="evenodd" d="M11.2383 26.1886C11.3012 25.9045 11.3611 25.633 11.4227 25.3618C11.4268 25.3437 11.4446 25.3137 11.4546 25.3141C11.5951 25.3216 11.7451 25.307 11.8711 25.355C11.9335 25.3788 11.9845 25.5199 11.9837 25.6074C11.9807 25.9754 11.6718 26.222 11.2383 26.1886ZM12.0964 24.8178C11.8812 24.7762 11.4399 24.7565 11.4395 24.7608C11.2858 24.7608 11.1321 24.7614 10.9783 24.7606C10.8836 24.76 10.8248 24.7989 10.8044 24.8966C10.6318 25.7136 10.4582 26.53 10.2837 27.3467C10.2591 27.4617 10.3063 27.511 10.4191 27.5105C10.5471 27.5097 10.6755 27.5067 10.8034 27.5118C10.9081 27.5159 10.9636 27.4766 10.9831 27.3697C11.0134 27.2035 11.0628 27.0405 11.0891 26.874C11.0984 26.8146 11.1081 26.768 11.1388 26.7431C11.1695 26.7182 11.2209 26.715 11.2791 26.7069C11.5261 26.6729 11.7794 26.6392 12.0126 26.5563C12.4594 26.3975 12.6872 26.0591 12.6996 25.5825C12.7106 25.1645 12.5078 24.8974 12.0964 24.8178Z" fill="#C3C3C3"/>
<path fill-rule="evenodd" clip-rule="evenodd" d="M18.111 25.1837C18.3496 24.6816 18.1979 24.7725 18.7691 24.7622C18.8047 24.7615 18.8407 24.7609 18.8763 24.7633C19.0344 24.7738 19.0732 24.8329 19.0006 24.9692C18.567 25.782 18.1328 26.5944 17.6924 27.4034C17.6647 27.4539 17.5854 27.5003 17.5267 27.5052C17.364 27.519 17.1994 27.5085 17.0356 27.5106C16.9331 27.5117 16.893 27.4628 16.8824 27.3627C16.7963 26.5588 16.708 25.7552 16.6164 24.9519C16.601 24.8171 16.6517 24.7598 16.7833 24.7614C16.9162 24.7631 17.0495 24.7652 17.1825 24.7614C17.3223 24.7571 17.3683 24.824 17.3705 24.9585L17.405 26.6903L18.111 25.1837Z" fill="#C3C3C3"/>
<path fill-rule="evenodd" clip-rule="evenodd" d="M9.3143 26.2361C9.15971 26.2915 8.81781 26.3227 8.8097 26.3057C8.86404 26.1152 8.95428 25.9468 9.15447 25.8745C9.25853 25.8368 9.38198 25.8147 9.44712 25.9484C9.49511 26.0467 9.43711 26.1922 9.3143 26.2361ZM9.70657 25.4107C9.47302 25.3297 9.23375 25.3306 8.99559 25.3896C8.27635 25.5677 8.00181 26.2858 8.07489 26.8808C8.11842 27.2346 8.33291 27.4669 8.68848 27.5097C8.93299 27.539 9.18911 27.5303 9.43298 27.4922C9.78204 27.4375 9.77918 27.4194 9.8413 27.0713C9.87896 26.8608 9.84384 26.8386 9.63873 26.8892C9.42695 26.9415 9.21008 26.9771 8.99337 27.003C8.88771 27.0157 8.79 26.9734 8.77253 26.8165C8.83751 26.8117 8.89296 26.8085 8.94825 26.8034C9.25996 26.7756 9.57264 26.7475 9.84511 26.5716C10.0842 26.4174 10.1786 26.1903 10.1454 25.9123C10.1138 25.6482 9.94616 25.4938 9.70657 25.4107Z" fill="#C3C3C3"/>
<path fill-rule="evenodd" clip-rule="evenodd" d="M23.7847 27.3586C23.7686 27.5093 23.8355 27.5097 24.1034 27.508C24.3825 27.5062 24.4365 27.5361 24.4693 27.4003L24.6669 26.4225L25.8005 24.9861C25.8329 24.9435 25.8644 24.8803 25.8517 24.8339C25.8334 24.7669 25.7536 24.7727 25.7536 24.7727H25.2103C25.118 24.7727 25.1089 24.8086 25.1089 24.8086C24.9821 24.9785 24.4753 25.754 24.434 25.808C24.4116 25.7282 24.2724 25.1763 24.2295 24.9504C24.2106 24.8515 24.1706 24.7961 24.0981 24.7765C24.07 24.7689 23.5786 24.7738 23.5535 24.7781C23.4483 24.7956 23.4373 24.8512 23.4871 24.995L23.9826 26.3917L23.7847 27.3586Z" fill="#C3C3C3"/>
<path fill-rule="evenodd" clip-rule="evenodd" d="M22.9056 26.9945C22.9036 26.91 22.855 26.8871 22.7409 26.9093C22.5904 26.9384 22.4416 26.9821 22.2898 26.9969C22.0099 27.0239 21.9053 26.9251 21.8982 26.6411C21.8891 26.2799 21.9827 25.9408 22.1521 25.6248C22.3232 25.3055 22.5966 25.2003 22.9419 25.3066C23.2595 25.4043 23.2563 25.4036 23.3292 25.07C23.3529 24.9612 23.3232 24.9008 23.2224 24.8525C23.1095 24.7982 22.9625 24.7259 22.6789 24.7097C22.1322 24.7097 21.8375 24.9159 21.5793 25.3091C21.3094 25.7203 21.1891 26.1772 21.2007 26.6634C21.2142 27.2412 21.5375 27.542 22.1182 27.5433C22.2202 27.5436 22.3226 27.5321 22.4238 27.5191C22.7714 27.4745 22.8176 27.4656 22.8721 27.205C22.8799 27.1678 22.9061 27.0137 22.9056 26.9945Z" fill="#C3C3C3"/>
<path fill-rule="evenodd" clip-rule="evenodd" d="M16.25 24.7627C16.1323 24.7605 16.0142 24.7666 15.8968 24.7596C15.7578 24.7513 15.6998 24.8122 15.6718 24.948C15.5217 25.6796 15.3636 26.4097 15.2067 27.14C15.1941 27.198 15.1836 27.247 15.1761 27.2881C15.1723 27.3086 15.1693 27.3275 15.1674 27.3444C15.1652 27.3614 15.1641 27.3766 15.1641 27.3903C15.1631 27.5107 15.244 27.5104 15.5053 27.5101C15.5719 27.5101 15.6385 27.5078 15.7049 27.5107C15.7959 27.5144 15.8461 27.4765 15.8658 27.3846C16.0398 26.5689 16.2154 25.7537 16.3922 24.9386C16.4187 24.816 16.3658 24.7648 16.25 24.7627Z" fill="#C3C3C3"/>
<path fill-rule="evenodd" clip-rule="evenodd" d="M19.6654 26.4366L20.123 25.5101L20.1652 26.4366H19.6654ZM20.9393 27.3056C20.9228 27.1324 20.8988 26.9601 20.8778 26.7875C20.8033 26.173 20.7261 25.5589 20.6558 24.9437C20.6404 24.8074 20.5759 24.7574 20.4455 24.7625C20.3176 24.7672 20.1892 24.7696 20.0616 24.7612C19.922 24.7521 19.8384 24.8039 19.7704 24.9312C19.3562 25.7078 18.9334 26.4798 18.514 27.2537L18.4544 27.3514C18.3929 27.5077 18.514 27.5096 18.514 27.5096H19.0464C19.1668 27.5096 19.1823 27.4426 19.1823 27.4426L19.4156 26.9736H20.1408C20.2253 26.9736 20.2178 27.0042 20.2178 27.0042C20.2178 27.0042 20.2151 27.1812 20.2253 27.3503C20.2358 27.5195 20.3152 27.5096 20.3152 27.5096H20.7529C20.9404 27.5079 20.9569 27.4929 20.9393 27.3056Z" fill="#C3C3C3"/>
<path fill-rule="evenodd" clip-rule="evenodd" d="M19.746 29.317C19.7921 29.3262 19.8413 29.3324 19.9149 29.3324C20.1826 29.3324 20.358 29.1602 20.358 28.9541C20.358 28.7541 20.2133 28.6896 20.0412 28.6896C19.9581 28.6896 19.8996 28.6956 19.8626 28.7048L19.746 29.317ZM19.4875 28.3912C19.6197 28.3574 19.8288 28.3358 20.0288 28.3358C20.2133 28.3358 20.4287 28.3666 20.5793 28.4741C20.7177 28.5696 20.8038 28.714 20.8038 28.9141C20.8038 29.1754 20.6839 29.3724 20.521 29.4984C20.3518 29.6308 20.1119 29.6891 19.8598 29.6891C19.7859 29.6891 19.7242 29.683 19.6782 29.6768L19.5368 30.4242H19.103L19.4875 28.3912Z" fill="white"/>
<path fill-rule="evenodd" clip-rule="evenodd" d="M21.2007 28.3512H21.6435L21.3237 30.0367H22.1203L22.0465 30.4242H20.8069L21.2007 28.3512Z" fill="white"/>
<path fill-rule="evenodd" clip-rule="evenodd" d="M23.1381 28.3512L22.9104 29.5447C22.8952 29.6154 22.889 29.6983 22.889 29.7908C22.889 29.9566 22.9905 30.086 23.1904 30.086C23.4209 30.086 23.5749 29.9322 23.6488 29.5477L23.8763 28.3512H24.3192L24.0947 29.5292C23.9748 30.1567 23.6978 30.4582 23.1349 30.4582C22.7076 30.4582 22.446 30.2397 22.446 29.7968C22.446 29.7075 22.4584 29.606 22.4769 29.5076L22.6953 28.3512H23.1381Z" fill="white"/>
<path fill-rule="evenodd" clip-rule="evenodd" d="M24.402 29.9445C24.525 30.0183 24.7004 30.0766 24.891 30.0766C25.0632 30.0766 25.2201 29.9967 25.2201 29.8337C25.2201 29.7168 25.1309 29.6399 24.9403 29.5415C24.7188 29.4216 24.5097 29.2616 24.5097 28.9909C24.5097 28.5725 24.8756 28.3174 25.3278 28.3174C25.5799 28.3174 25.7277 28.3727 25.8168 28.4219L25.6784 28.791C25.6107 28.7541 25.4633 28.6957 25.2911 28.6987C25.0849 28.6987 24.9771 28.8032 24.9771 28.9171C24.9771 29.0371 25.1033 29.111 25.2787 29.2093C25.5307 29.3415 25.6907 29.5109 25.6907 29.7568C25.6907 30.2182 25.3093 30.4551 24.8481 30.4551C24.5588 30.4551 24.3527 30.3812 24.2544 30.3073L24.402 29.9445Z" fill="white"/>
<path fill-rule="evenodd" clip-rule="evenodd" d="M29.8404 19.7126C29.638 19.1027 29.1913 18.8412 28.5108 18.9351C28.4906 18.9379 28.473 18.9408 28.4607 18.9416C28.1563 18.9544 27.8495 19.1794 27.3178 19.668C26.6816 17.7282 25.885 15.5201 25.3361 14.7739C24.5379 13.6887 23.6642 13.1295 22.9021 12.8481C24.2281 12.1246 25.1276 10.7179 25.1276 9.10096C25.1276 6.74495 23.2176 4.83507 20.8616 4.83507C18.5057 4.83507 16.5958 6.74495 16.5958 9.10096C16.5958 10.736 17.5161 12.1556 18.8664 12.8716C18.1285 13.1601 17.2592 13.7177 16.3874 14.7739C15.7268 15.5741 14.8582 18.2506 14.2511 20.3341C13.9566 20.2974 13.6658 20.252 13.3794 20.1988C14.1417 17.8734 14.9144 15.6442 15.2762 14.9896C16.1156 13.4709 17.2507 12.7434 17.2507 12.7434C14.3501 9.45129 16.4977 6.44515 16.9215 5.91513C16.6602 5.86095 16.3893 5.83235 16.1117 5.83235C13.9148 5.83235 12.1339 7.61338 12.1339 9.81019C12.1339 11.3348 12.992 12.6584 14.2511 13.3262C13.5632 13.5952 12.7526 14.1152 11.9396 15.0999C11.4237 15.7246 10.7725 17.5755 10.2418 19.3016C9.96569 19.1956 9.70036 19.0866 9.44536 18.9764C9.86687 17.7324 10.2696 16.5938 10.5359 15.9569C11.3513 14.0065 12.6622 13.2871 12.6622 13.2871C12.6622 13.2871 9.7493 10.4506 12.2626 6.82121C11.9612 6.74463 11.6455 6.70364 11.3204 6.70364C9.21308 6.70364 7.50482 8.4119 7.50482 10.5191C7.50482 11.9816 8.32797 13.2512 9.53577 13.8916C8.87578 14.1496 8.17084 14.6484 7.39106 15.5931C7.12081 15.9203 6.80655 16.5989 6.49118 17.4168C6.22061 17.2436 6.06935 17.1353 6.06141 17.1296C5.8617 16.9845 5.58176 17.0285 5.43622 17.2285C5.29085 17.4284 5.33502 17.7084 5.53489 17.8537C5.71871 17.9877 10.0998 21.1338 15.4181 21.3286C20.546 21.516 23.0403 19.9752 24.2387 19.2347L24.4065 19.1316C24.4838 19.0842 24.7457 18.9376 24.8615 19.035C24.981 19.1359 25.0623 19.488 24.9041 19.8871C24.6666 20.4857 23.9321 21.2061 23.3879 21.5302C23.0444 21.735 22.7954 22.1972 22.9923 22.587C23.3676 23.3306 24.6499 22.7925 25.0714 22.6155C25.8478 22.2895 26.7108 21.4716 27.4724 20.7501C27.846 20.3959 28.3544 19.9142 28.5351 19.8337C28.564 19.8311 28.5972 19.827 28.6336 19.8219C28.8811 19.7876 28.9248 19.7967 28.9904 19.9945C29.0926 20.3019 29.8752 23.0878 26.0084 26.2184C25.8162 26.3741 25.7865 26.6559 25.942 26.848C26.0307 26.9573 26.1599 27.014 26.2903 27.014C26.3891 27.014 26.4889 26.9815 26.5717 26.9143C29.8636 24.2492 30.3898 21.3692 29.8404 19.7126Z" fill="white"/>
<defs>
<radialGradient id="paint0_radial_111_2" cx="0" cy="0" r="1" gradientUnits="userSpaceOnUse" gradientTransform="translate(11.1106 4.21137) scale(31.0439 31.044)">
<stop stop-color="#BCBCBA"/>
<stop offset="1" stop-color="#676766"/>
</radialGradient>
</defs>
</svg>
